<svg xmlns="http://www.w3.org/2000/svg" width="54" height="30" viewBox="0 0 54 30">
  <defs>
    <style>
      .cls-1 {
        fill: #fff;
        fill-rule: evenodd;
      }
    </style>
  </defs>
  <path id="Forma_1" data-name="Forma 1" class="cls-1" d="M51.324,8.211H50.251V4.248A4.266,4.266,0,0,0,45.976,0H30.484A4.279,4.279,0,0,0,27,1.791,4.279,4.279,0,0,0,23.516,0H13.783a0.786,0.786,0,1,0,0,1.572h9.733a2.687,2.687,0,0,1,2.693,2.676v7.862l-0.051-.046a5.19,5.19,0,0,0-3.491-1.37H9.491A2.7,2.7,0,0,0,7.7,8.359,2.643,2.643,0,0,0,6.82,8.211H5.331V4.248A2.687,2.687,0,0,1,8.024,1.572h2.6a0.786,0.786,0,1,0,0-1.572h-2.6A4.266,4.266,0,0,0,3.749,4.248V8.211H2.676A2.671,2.671,0,0,0,0,10.871v8.208a5.563,5.563,0,0,0,5.573,5.539h0.4L5.1,26.935A2.3,2.3,0,0,0,7.248,30H8.52a2.3,2.3,0,0,0,1.824-.9l3.41-4.48H40.246l3.41,4.48a2.3,2.3,0,0,0,1.824.9h1.273A2.3,2.3,0,0,0,48.9,26.935l-0.867-2.317h0.4A5.563,5.563,0,0,0,54,19.079V10.871A2.671,2.671,0,0,0,51.324,8.211ZM27.791,4.249a2.687,2.687,0,0,1,2.693-2.676H45.976a2.688,2.688,0,0,1,2.693,2.676V8.211H47.179a2.739,2.739,0,0,0-2.469,1.633,2.63,2.63,0,0,0-.2.851H31.333a5.206,5.206,0,0,0-3.542,1.416V4.249h0ZM9.5,12.267h13.17a3.535,3.535,0,0,1,3.542,3.52v1.118H9.5V12.267ZM9.083,28.15a0.71,0.71,0,0,1-.562.278H7.248a0.707,0.707,0,0,1-.661-0.945l1.072-2.865h4.112Zm37.67,0.278H45.48a0.71,0.71,0,0,1-.562-0.278L42.23,24.618h4.112l1.072,2.865A0.708,0.708,0,0,1,46.752,28.428Zm1.674-5.382H5.573a3.984,3.984,0,0,1-3.991-3.967V10.871A1.092,1.092,0,0,1,2.676,9.783H6.82a1.092,1.092,0,0,1,1.094,1.087v6.821a0.789,0.789,0,0,0,.791.786H37.76a0.786,0.786,0,1,0,0-1.572H27.791V15.787a3.535,3.535,0,0,1,3.542-3.52H44.5v4.638H40.924a0.786,0.786,0,1,0,0,1.572h4.37a0.789,0.789,0,0,0,.791-0.786V10.871a1.092,1.092,0,0,1,1.094-1.087h4.144a1.092,1.092,0,0,1,1.094,1.087v8.208h0A3.984,3.984,0,0,1,48.427,23.046Z"/>
</svg>
